<?xml version="1.0" encoding="UTF-8" standalone="no"?>
<!DOCTYPE svg PUBLIC "-//W3C//DTD SVG 1.1//EN" "http://www.w3.org/Graphics/SVG/1.1/DTD/svg11.dtd">
<svg width="100%" height="100%" viewBox="0 0 1807 464" version="1.1" xmlns="http://www.w3.org/2000/svg" xmlns:xlink="http://www.w3.org/1999/xlink" xml:space="preserve" xmlns:serif="http://www.serif.com/" style="fill-rule:evenodd;clip-rule:evenodd;stroke-linejoin:round;stroke-miterlimit:2;">
    <g transform="matrix(1,0,0,1,-746.552,-1043.28)">
        <g id="J" transform="matrix(0.836233,0,0,0.577799,737.541,1030.41)">
            <path d="M377.934,543.632L377.934,33.42L256.318,33.42L256.318,535.834C256.318,626.068 228.608,665.058 183.964,665.058C146.247,665.058 116.228,636.094 85.439,587.078L10.776,707.39C47.723,770.888 103.143,824.36 187.043,824.36C300.962,824.36 377.934,733.012 377.934,543.632Z" style="fill-rule:nonzero;"/>
        </g>
        <g id="S" transform="matrix(0.836233,0,0,0.577799,737.541,1030.41)">
            <path d="M440.118,604.496C481.593,647.004 525.654,672.856 577.293,672.856C625.785,672.856 655.035,645.006 655.035,599.332L655.035,597.104C655.035,553.658 636.561,531.378 546.504,497.958C437.973,457.854 367.928,414.408 367.928,259.562L367.928,257.334C367.928,115.856 446.44,22.28 556.51,22.28C635.022,22.28 701.988,57.928 756.638,121.426L695.06,250.65C647.338,202.748 600.384,173.784 554.971,173.784C509.557,173.784 485.696,203.862 485.696,241.738L485.696,243.966C485.696,295.21 508.787,311.92 601.924,346.454C711.225,387.672 772.803,444.486 772.803,580.394L772.803,582.622C772.803,737.468 691.212,824.36 574.984,824.36C501.564,824.36 427.521,790.984 366.315,723.421L440.118,604.496Z" style="fill:rgb(29,78,216);"/>
        </g>
        <g id="A" transform="matrix(0.836233,0,0,0.577799,737.541,1030.41)">
            <path d="M1103.41,729.908L1077.61,638.322L849.775,638.322L800.513,813.22L679.666,813.22L910.583,27.85L1019.88,27.85L1186.8,595.537L1103.41,729.908ZM1035.28,486.818L963.694,233.94L892.11,486.818L1035.28,486.818Z"/>
        </g>
        <g id="SCS">
            <g transform="matrix(0.702721,0,0,0.36521,1830.25,1122.64)">
                <path d="M31.496,77.649C31.496,53.407 42.914,34.468 60.827,34.468C75.001,34.468 87.796,43.18 100.592,63.255L109.647,40.15C95.67,18.56 81.3,7.575 61.221,7.575C35.04,7.575 15.945,37.877 15.945,80.3C15.945,124.238 30.512,143.934 62.205,157.191C91.143,168.933 98.033,182.948 98.033,207.947C98.033,234.84 85.828,253.4 67.324,253.4C48.229,253.4 34.449,240.901 20.079,215.902L10.433,237.87C26.969,266.279 44.882,280.293 66.733,280.293C94.095,280.293 113.781,250.749 113.781,204.917C113.781,164.009 99.607,142.419 68.898,129.541C38.583,117.041 31.496,103.027 31.496,77.649Z" style="fill-rule:nonzero;"/>
            </g>
            <g transform="matrix(0.702721,0,0,0.36521,1830.25,1122.64)">
                <path d="M162.403,106.436L194.687,106.436L194.687,80.679L162.403,80.679L162.403,21.59L147.246,21.59L147.246,80.679L133.072,80.679L133.072,106.436L147.246,106.436L147.246,224.613C147.246,264.385 159.647,279.914 175.986,279.914C183.27,279.914 188.978,276.884 194.293,271.581L194.293,246.582C188.978,251.506 184.648,253.4 179.529,253.4C169.293,253.4 162.403,244.688 162.403,220.826L162.403,106.436Z" style="fill-rule:nonzero;"/>
            </g>
            <g transform="matrix(0.702721,0,0,0.36521,1830.25,1122.64)">
                <path d="M236.617,198.478C236.617,139.389 254.727,108.708 276.971,108.708L278.152,108.708L278.152,77.27C258.861,75.755 244.097,99.239 236.617,131.814L236.617,80.679L221.459,80.679L221.459,276.505L236.617,276.505L236.617,198.478Z" style="fill-rule:nonzero;"/>
            </g>
            <g transform="matrix(0.702721,0,0,0.36521,1830.25,1122.64)">
                <path d="M333.074,103.784C352.169,103.784 363.39,121.965 363.39,157.191L363.39,164.009C354.334,159.085 345.082,155.676 332.09,155.676C306.302,155.676 288.586,177.645 288.586,219.311C288.586,260.218 307.68,280.672 326.578,280.672C344.492,280.672 356.303,264.763 363.39,246.961L363.39,276.505L377.957,276.505L377.957,156.813C377.957,105.299 362.405,78.028 334.649,78.028C319.885,78.028 308.861,84.467 297.641,94.315L302.168,118.178C311.617,109.845 321.066,103.784 333.074,103.784ZM333.665,177.267C346.067,177.267 356.106,181.433 363.586,185.6L363.586,204.538C363.586,235.598 348.232,257.567 329.531,257.567C315.751,257.567 303.94,243.173 303.94,218.174C303.94,193.175 314.57,177.267 333.665,177.267Z" style="fill-rule:nonzero;"/>
            </g>
            <g transform="matrix(0.702721,0,0,0.36521,1830.25,1122.64)">
                <path d="M429.729,106.436L462.013,106.436L462.013,80.679L429.729,80.679L429.729,21.59L414.571,21.59L414.571,80.679L400.398,80.679L400.398,106.436L414.571,106.436L414.571,224.613C414.571,264.385 426.973,279.914 443.312,279.914C450.595,279.914 456.304,276.884 461.619,271.581L461.619,246.582C456.304,251.506 451.973,253.4 446.855,253.4C436.619,253.4 429.729,244.688 429.729,220.826L429.729,106.436Z" style="fill-rule:nonzero;"/>
            </g>
            <g transform="matrix(0.702721,0,0,0.36521,1830.25,1122.64)">
                <path d="M494.887,189.387L575.596,189.387C575.793,185.978 575.793,182.948 575.793,180.297C575.793,122.723 558.47,76.512 528.352,76.512C500.202,76.512 479.533,121.965 479.533,178.782C479.533,239.764 502.367,281.051 530.32,281.051C549.612,281.051 562.014,266.279 572.25,244.31L562.801,228.022C554.533,244.688 544.691,255.673 530.714,255.673C512.801,255.673 497.052,231.81 494.887,189.387ZM494.887,167.797C496.856,129.541 510.241,101.133 527.958,101.133C548.234,101.133 558.864,132.192 560.439,167.797L494.887,167.797Z" style="fill-rule:nonzero;"/>
            </g>
            <g transform="matrix(0.702721,0,0,0.36521,1830.25,1122.64)">
                <path d="M699.22,242.416L699.22,80.679L684.062,80.679L684.062,115.905C675.794,94.694 663.393,76.512 644.298,76.512C620.085,76.512 596.463,111.739 596.463,169.312C596.463,226.507 619.888,261.355 644.298,261.355C662.999,261.355 675.401,242.795 684.259,220.068L684.259,243.173C684.259,289.005 669.692,312.868 647.251,312.868C632.684,312.868 619.691,304.156 608.077,287.869L601.187,310.595C614.77,328.776 630.518,337.867 647.448,337.867C678.747,337.867 699.22,305.671 699.22,242.416ZM684.653,168.933C684.653,209.084 666.542,235.598 647.251,235.598C628.353,235.598 612.014,208.705 612.014,168.555C612.014,127.647 627.959,102.269 647.251,102.269C666.542,102.269 684.653,128.405 684.653,168.933Z" style="fill-rule:nonzero;"/>
            </g>
            <g transform="matrix(0.702721,0,0,0.36521,1830.25,1122.64)">
                <path d="M750.795,37.877L750.795,5.682L733.472,5.682L733.472,37.877L750.795,37.877ZM749.614,276.505L749.614,80.679L734.456,80.679L734.456,276.505L749.614,276.505Z" style="fill-rule:nonzero;"/>
            </g>
            <g transform="matrix(0.702721,0,0,0.36521,1830.25,1122.64)">
                <path d="M793.906,189.387L874.615,189.387C874.812,185.978 874.812,182.948 874.812,180.297C874.812,122.723 857.489,76.512 827.371,76.512C799.221,76.512 778.551,121.965 778.551,178.782C778.551,239.764 801.386,281.051 829.339,281.051C848.631,281.051 861.033,266.279 871.269,244.31L861.82,228.022C853.552,244.688 843.709,255.673 829.733,255.673C811.819,255.673 796.071,231.81 793.906,189.387ZM793.906,167.797C795.874,129.541 809.26,101.133 826.977,101.133C847.253,101.133 857.883,132.192 859.458,167.797L793.906,167.797Z" style="fill-rule:nonzero;"/>
            </g>
            <g transform="matrix(0.702721,0,0,0.36521,1830.25,1122.64)">
                <path d="M971.27,221.583L971.27,220.826C971.27,185.6 954.341,173.858 938.592,164.767C925.01,156.813 912.411,149.616 912.411,131.056L912.411,130.298C912.411,114.011 920.088,101.89 932.096,101.89C941.939,101.89 952.766,109.087 962.215,120.829L969.104,98.86C958.671,85.603 944.892,77.27 932.49,77.27C912.411,77.27 897.844,99.618 897.844,133.329L897.844,134.086C897.844,170.07 915.561,180.676 931.506,189.387C944.892,196.584 956.9,204.16 956.9,223.856L956.9,224.613C956.9,243.552 948.041,255.673 935.836,255.673C923.828,255.673 911.624,246.582 900.6,230.674L892.923,251.506C904.34,269.309 920.482,280.293 935.049,280.293C955.325,280.293 971.27,258.703 971.27,221.583Z" style="fill-rule:nonzero;"/>
            </g>
            <g transform="matrix(0.702721,0,0,0.36521,1830.25,1122.64)">
                <path d="M137.6,613.236L127.364,593.919C114.174,618.16 101.773,632.175 82.875,632.175C52.56,632.175 29.528,584.07 29.528,522.33C29.528,460.59 52.363,413.243 82.875,413.243C101.576,413.243 114.568,428.394 126.182,449.605L136.812,427.637C123.033,402.637 108.072,385.593 83.072,385.593C42.52,385.593 13.386,447.333 13.386,523.088C13.386,599.6 42.717,659.825 82.481,659.825C107.481,659.825 123.23,641.265 137.6,613.236Z" style="fill-rule:nonzero;"/>
            </g>
            <g transform="matrix(0.702721,0,0,0.36521,1830.25,1122.64)">
                <path d="M260.042,557.177C260.042,501.498 237.601,455.287 207.089,455.287C176.38,455.287 153.939,502.255 153.939,557.935C153.939,613.615 176.183,659.825 206.695,659.825C237.404,659.825 260.042,612.857 260.042,557.177ZM244.491,557.935C244.491,599.979 229.136,633.69 207.089,633.69C185.632,633.69 169.49,599.6 169.49,557.177C169.49,514.755 184.648,481.044 206.695,481.044C228.152,481.044 244.491,515.134 244.491,557.935Z" style="fill-rule:nonzero;"/>
            </g>
            <g transform="matrix(0.702721,0,0,0.36521,1830.25,1122.64)">
                <path d="M302.562,543.163C302.562,506.422 315.554,481.801 333.074,481.801C350.988,481.801 361.224,504.528 361.224,540.89L361.224,655.28L376.382,655.28L376.382,533.693C376.382,487.104 362.012,455.287 337.405,455.287C319.885,455.287 309.255,472.332 302.562,493.543L302.562,459.454L287.405,459.454L287.405,655.28L302.562,655.28L302.562,543.163Z" style="fill-rule:nonzero;"/>
            </g>
            <g transform="matrix(0.702721,0,0,0.36521,1830.25,1122.64)">
                <path d="M478.548,600.358L478.548,599.6C478.548,564.374 461.619,552.632 445.871,543.542C432.288,535.587 419.689,528.391 419.689,509.831L419.689,509.073C419.689,492.786 427.367,480.665 439.375,480.665C449.217,480.665 460.044,487.862 469.493,499.604L476.383,477.635C465.95,464.378 452.17,456.045 439.768,456.045C419.689,456.045 405.122,478.392 405.122,512.103L405.122,512.861C405.122,548.844 422.839,559.45 438.784,568.162C452.17,575.359 464.178,582.934 464.178,602.63L464.178,603.388C464.178,622.327 455.32,634.448 443.115,634.448C431.107,634.448 418.902,625.357 407.878,609.448L400.201,630.281C411.618,648.083 427.76,659.068 442.327,659.068C462.603,659.068 478.548,637.478 478.548,600.358Z" style="fill-rule:nonzero;"/>
            </g>
            <g transform="matrix(0.702721,0,0,0.36521,1830.25,1122.64)">
                <path d="M578.943,571.571C578.943,608.312 565.754,632.932 548.431,632.932C530.517,632.932 520.281,610.206 520.281,573.844L520.281,459.454L505.123,459.454L505.123,581.04C505.123,627.63 519.494,659.447 544.1,659.447C561.62,659.447 572.053,642.402 578.943,621.19L578.943,655.28L593.904,655.28L593.904,459.454L578.943,459.454L578.943,571.571Z" style="fill-rule:nonzero;"/>
            </g>
            <g transform="matrix(0.702721,0,0,0.36521,1830.25,1122.64)">
                <rect x="629.337" y="378.775" width="15.158" height="276.505" style="fill-rule:nonzero;"/>
            </g>
            <g transform="matrix(0.702721,0,0,0.36521,1830.25,1122.64)">
                <path d="M700.204,485.21L732.488,485.21L732.488,459.454L700.204,459.454L700.204,400.365L685.046,400.365L685.046,459.454L670.873,459.454L670.873,485.21L685.046,485.21L685.046,603.388C685.046,643.159 697.448,658.689 713.787,658.689C721.07,658.689 726.779,655.659 732.094,650.356L732.094,625.357C726.779,630.281 722.448,632.175 717.33,632.175C707.094,632.175 700.204,623.463 700.204,599.6L700.204,485.21Z" style="fill-rule:nonzero;"/>
            </g>
            <g transform="matrix(0.702721,0,0,0.36521,1830.25,1122.64)">
                <path d="M776.977,416.652L776.977,384.456L759.654,384.456L759.654,416.652L776.977,416.652ZM775.795,655.28L775.795,459.454L760.638,459.454L760.638,655.28L775.795,655.28Z" style="fill-rule:nonzero;"/>
            </g>
            <g transform="matrix(0.702721,0,0,0.36521,1830.25,1122.64)">
                <path d="M826.19,543.163C826.19,506.422 839.182,481.801 856.702,481.801C874.615,481.801 884.852,504.528 884.852,540.89L884.852,655.28L900.009,655.28L900.009,533.693C900.009,487.104 885.639,455.287 861.033,455.287C843.513,455.287 832.883,472.332 826.19,493.543L826.19,459.454L811.032,459.454L811.032,655.28L826.19,655.28L826.19,543.163Z" style="fill-rule:nonzero;"/>
            </g>
            <g transform="matrix(0.702721,0,0,0.36521,1830.25,1122.64)">
                <path d="M1029.14,621.19L1029.14,459.454L1013.99,459.454L1013.99,494.68C1005.72,473.468 993.317,455.287 974.223,455.287C950.01,455.287 926.388,490.513 926.388,548.087C926.388,605.282 949.813,640.129 974.223,640.129C992.924,640.129 1005.33,621.569 1014.18,598.843L1014.18,621.948C1014.18,667.78 999.617,691.642 977.175,691.642C962.608,691.642 949.616,682.931 938.002,666.643L931.112,689.37C944.695,707.551 960.443,716.642 977.372,716.642C1008.67,716.642 1029.14,684.446 1029.14,621.19ZM1014.58,547.708C1014.58,587.858 996.467,614.372 977.175,614.372C958.278,614.372 941.939,587.479 941.939,547.329C941.939,506.422 957.884,481.044 977.175,481.044C996.467,481.044 1014.58,507.179 1014.58,547.708Z" style="fill-rule:nonzero;"/>
            </g>
            <g transform="matrix(0.702721,0,0,0.36521,1830.25,1122.64)">
                <path d="M31.496,835.198C31.496,810.957 42.914,792.018 60.827,792.018C75.001,792.018 87.796,800.73 100.592,820.805L109.647,797.699C95.67,776.109 81.3,765.125 61.221,765.125C35.04,765.125 15.945,795.427 15.945,837.85C15.945,881.787 30.512,901.484 62.205,914.741C91.143,926.483 98.033,940.497 98.033,965.497C98.033,992.39 85.828,1010.95 67.324,1010.95C48.229,1010.95 34.449,998.45 20.079,973.451L10.433,995.42C26.969,1023.83 44.882,1037.84 66.733,1037.84C94.095,1037.84 113.781,1008.3 113.781,962.466C113.781,921.559 99.607,899.969 68.898,887.09C38.583,874.591 31.496,860.576 31.496,835.198Z" style="fill-rule:nonzero;"/>
            </g>
            <g transform="matrix(0.702721,0,0,0.36521,1830.25,1122.64)">
                <path d="M151.97,946.937L232.68,946.937C232.876,943.528 232.876,940.497 232.876,937.846C232.876,880.272 215.553,834.062 185.435,834.062C157.285,834.062 136.616,879.515 136.616,936.331C136.616,997.314 159.45,1038.6 187.404,1038.6C206.695,1038.6 219.097,1023.83 229.333,1001.86L219.884,985.572C211.616,1002.24 201.774,1013.22 187.797,1013.22C169.884,1013.22 154.135,989.359 151.97,946.937ZM151.97,925.346C153.939,887.09 167.325,858.682 185.041,858.682C205.317,858.682 215.947,889.742 217.522,925.346L151.97,925.346Z" style="fill-rule:nonzero;"/>
            </g>
            <g transform="matrix(0.702721,0,0,0.36521,1830.25,1122.64)">
                <path d="M274.609,956.027C274.609,896.938 292.72,866.258 314.964,866.258L316.145,866.258L316.145,834.819C296.853,833.304 282.09,856.788 274.609,889.363L274.609,838.228L259.451,838.228L259.451,1034.06L274.609,1034.06L274.609,956.027Z" style="fill-rule:nonzero;"/>
            </g>
            <g transform="matrix(0.702721,0,0,0.36521,1830.25,1122.64)">
                <path d="M380.122,1000.72L345.87,838.228L329.137,838.228L373.232,1035.57L386.618,1035.57L430.91,838.228L414.571,838.228L380.122,1000.72Z" style="fill-rule:nonzero;"/>
            </g>
            <g transform="matrix(0.702721,0,0,0.36521,1830.25,1122.64)">
                <path d="M472.446,795.427L472.446,763.231L455.123,763.231L455.123,795.427L472.446,795.427ZM471.265,1034.06L471.265,838.228L456.107,838.228L456.107,1034.06L471.265,1034.06Z" style="fill-rule:nonzero;"/>
            </g>
            <g transform="matrix(0.702721,0,0,0.36521,1830.25,1122.64)">
                <path d="M593.904,1000.72L584.258,983.299C576.187,999.965 566.148,1012.47 553.155,1012.47C531.895,1012.47 515.753,978.754 515.753,935.952C515.753,893.529 531.502,859.818 552.171,859.818C565.951,859.818 575.006,873.076 583.077,889.363L593.116,868.909C583.667,849.592 571.659,834.062 552.368,834.062C522.643,834.062 500.202,881.03 500.202,936.71C500.202,992.011 522.643,1038.6 552.368,1038.6C571.463,1038.6 583.667,1022.69 593.904,1000.72Z" style="fill-rule:nonzero;"/>
            </g>
            <g transform="matrix(0.702721,0,0,0.36521,1830.25,1122.64)">
                <path d="M625.006,946.937L705.716,946.937C705.913,943.528 705.913,940.497 705.913,937.846C705.913,880.272 688.59,834.062 658.471,834.062C630.321,834.062 609.652,879.515 609.652,936.331C609.652,997.314 632.487,1038.6 660.44,1038.6C679.731,1038.6 692.133,1023.83 702.369,1001.86L692.921,985.572C684.653,1002.24 674.81,1013.22 660.834,1013.22C642.92,1013.22 627.172,989.359 625.006,946.937ZM625.006,925.346C626.975,887.09 640.361,858.682 658.078,858.682C678.353,858.682 688.983,889.742 690.558,925.346L625.006,925.346Z" style="fill-rule:nonzero;"/>
            </g>
            <g transform="matrix(0.702721,0,0,0.36521,1830.25,1122.64)">
                <path d="M802.37,979.132L802.37,978.375C802.37,943.149 785.441,931.407 769.693,922.316C756.11,914.362 743.512,907.165 743.512,888.605L743.512,887.848C743.512,871.56 751.189,859.44 763.197,859.44C773.039,859.44 783.866,866.636 793.315,878.378L800.205,856.409C789.772,843.152 775.992,834.819 763.591,834.819C743.512,834.819 728.945,857.167 728.945,890.878L728.945,891.636C728.945,927.619 746.661,938.225 762.606,946.937C775.992,954.133 788,961.709 788,981.405L788,982.163C788,1001.1 779.142,1013.22 766.937,1013.22C754.929,1013.22 742.724,1004.13 731.7,988.223L724.023,1009.06C735.441,1026.86 751.583,1037.84 766.15,1037.84C786.425,1037.84 802.37,1016.25 802.37,979.132Z" style="fill-rule:nonzero;"/>
            </g>
        </g>
        <g id="Square" transform="matrix(1.40443,0,0,1.40443,-747.266,3.87324)">
            <rect x="1742.39" y="1013.33" width="52.162" height="52.162" style="fill:rgb(29,78,216);"/>
        </g>
    </g>
</svg>
